<?xml version="1.0" standalone="no"?>
<!DOCTYPE svg PUBLIC "-//W3C//DTD SVG 20010904//EN"
 "http://www.w3.org/TR/2001/REC-SVG-20010904/DTD/svg10.dtd">
<svg version="1.0" xmlns="http://www.w3.org/2000/svg"
 width="360.000000pt" height="360.000000pt" viewBox="0 0 360.000000 360.000000"
 preserveAspectRatio="xMidYMid meet">

<g transform="translate(0.000000,360.000000) scale(0.100000,-0.100000)"
fill="#000000" stroke="none">
<path d="M1615 3589 c-408 -43 -794 -227 -1086 -518 -702 -703 -702 -1839 0
-2542 703 -702 1839 -702 2542 0 702 703 702 1839 0 2542 -383 382 -921 574
-1456 518z m508 -128 c154 -31 273 -72 422 -145 343 -169 602 -428 771 -771
73 -150 114 -269 146 -427 33 -164 33 -472 0 -636 -32 -158 -73 -277 -146
-427 -169 -343 -428 -602 -771 -771 -150 -73 -269 -114 -427 -146 -164 -33
-472 -33 -636 0 -158 32 -277 73 -427 146 -343 169 -602 428 -771 771 -73 150
-114 269 -146 427 -33 164 -33 472 0 636 32 158 73 277 146 427 169 343 428
602 771 771 152 74 273 116 422 143 154 29 159 29 358 26 135 -2 207 -8 288
-24z"/>
<path d="M1100 1780 l0 -840 90 0 90 0 2 691 3 692 524 -692 525 -691 93 0 93
0 0 840 0 840 -90 0 -90 0 0 -690 c0 -379 -3 -690 -7 -690 -5 1 -242 310 -528
688 l-521 687 -92 3 -92 3 0 -841z"/>
</g>
</svg>
