<svg id="Layer_3" height="512" viewBox="0 0 64 64" width="512" xmlns="http://www.w3.org/2000/svg" data-name="Layer 3"><path d="m17 5h2v2h-2z"/><path d="m27 5h2v2h-2z"/><path d="m16.293 37.293-2.293 2.293-2.293-2.293-1.414 1.414 2.293 2.293-2.293 2.293 1.414 1.414 2.293-2.293 2.293 2.293 1.414-1.414-2.293-2.293 2.293-2.293z"/><path d="m11.707 17.293-1.414 1.414 2 2a1 1 0 0 0 1.414 0l4-4-1.414-1.414-3.293 3.293z"/><path d="m13 29.586-1.293-1.293-1.414 1.414 2 2a1 1 0 0 0 1.414 0l4-4-1.414-1.414z"/><path d="m20 15h17v2h-17z"/><path d="m20 19h17v2h-17z"/><path d="m20 26h17v2h-17z"/><path d="m20 30h17v2h-17z"/><path d="m20 38h17v2h-17z"/><path d="m20 42h13v2h-13z"/><path d="m35 42h2v2h-2z"/><path d="m50 37a12.809 12.809 0 0 0 -5 1.026v-34.026a1 1 0 0 0 -1-1h-10v-1a1 1 0 0 0 -1-1h-20a1 1 0 0 0 -1 1v1h-10a1 1 0 0 0 -1 1v54a1 1 0 0 0 1 1h38.641a12.993 12.993 0 1 0 9.359-22zm-7-32v32.613l-2-.667v-28.946a1 1 0 0 0 -1-1h-6v-2zm-29-2h18v6h-18zm19 8a1 1 0 0 0 1-1v-1h5v27.28l-.684-.228a1 1 0 0 0 -1.23 1.354l2.281 5.133a12.847 12.847 0 0 0 -2.367 7.461c0 .338.025.669.051 1h-30.051v-42h5v1a1 1 0 0 0 1 1zm-30 46v-52h9v2h-6a1 1 0 0 0 -1 1v44a1 1 0 0 0 1 1h31.363a12.944 12.944 0 0 0 1.7 4zm45 3.809v-4.786a1 1 0 0 0 -.57-.9 5.989 5.989 0 0 1 -.43-10.6v5.191a1 1 0 0 0 .293.707l2 2a1 1 0 0 0 1.414 0l2-2a1 1 0 0 0 .293-.715v-5.191a5.989 5.989 0 0 1 -.43 10.6 1 1 0 0 0 -.57.9v4.786a10.567 10.567 0 0 1 -4 0zm6-.573v-3.61a7.992 7.992 0 0 0 -1.714-14.584 1 1 0 0 0 -1.286.958v6.292l-1 1-1-1v-6.292a1 1 0 0 0 -1.286-.958 7.992 7.992 0 0 0 -1.714 14.584v3.61a11.01 11.01 0 0 1 -7-10.236 10.889 10.889 0 0 1 2.308-6.723 1 1 0 0 0 .124-1.018l-1.6-3.594 4.568 1.522a1 1 0 0 0 .758-.051 10.876 10.876 0 0 1 4.842-1.136 10.993 10.993 0 0 1 4 21.236z"/></svg>